<svg width="40" height="40" viewBox="0 0 40 40" fill="none" xmlns="http://www.w3.org/2000/svg">
<path d="M20 10.04C25.4998 10.04 29.9997 14.5298 30 20.0596C30.0054 22.4452 29.158 24.7549 27.6104 26.5703C26.0626 28.3858 23.916 29.5878 21.5596 29.96V22.96H23.8896L24.3398 20.0596H21.5596V18.1797C21.5597 17.3898 21.9506 16.6201 23.1904 16.6201H24.4502V14.1504C24.4502 14.1504 23.3097 13.96 22.2197 13.96C19.93 13.9601 18.4406 15.34 18.4404 17.8496V20.0596H15.9004V22.96H18.4404V29.96C13.6604 29.21 10 25.0596 10 20.0596C10.0003 14.5298 14.5002 10.04 20 10.04Z" fill="#828282"/>
</svg>
